G04 EAGLE Gerber RS-274X export*
G75*
%MOMM*%
%FSLAX34Y34*%
%LPD*%
%INBottom Copper*%
%IPPOS*%
%AMOC8*
5,1,8,0,0,1.08239X$1,22.5*%
G01*
%ADD10C,1.320800*%
%ADD11C,1.950000*%
%ADD12C,1.397000*%
%ADD13C,0.152400*%
%ADD14C,0.756400*%
%ADD15C,0.656400*%
%ADD16C,0.152400*%


D10*
X203200Y602996D02*
X203200Y616204D01*
X228600Y616204D02*
X228600Y602996D01*
X254000Y602996D02*
X254000Y616204D01*
X279400Y616204D02*
X279400Y602996D01*
X304800Y602996D02*
X304800Y616204D01*
X304800Y755396D02*
X304800Y768604D01*
X279400Y768604D02*
X279400Y755396D01*
X254000Y755396D02*
X254000Y768604D01*
X228600Y768604D02*
X228600Y755396D01*
X203200Y755396D02*
X203200Y768604D01*
X63500Y616204D02*
X63500Y602996D01*
X88900Y602996D02*
X88900Y616204D01*
X114300Y616204D02*
X114300Y602996D01*
X139700Y602996D02*
X139700Y616204D01*
X165100Y616204D02*
X165100Y602996D01*
X165100Y755396D02*
X165100Y768604D01*
X139700Y768604D02*
X139700Y755396D01*
X114300Y755396D02*
X114300Y768604D01*
X88900Y768604D02*
X88900Y755396D01*
X63500Y755396D02*
X63500Y768604D01*
D11*
X147800Y102700D03*
X177800Y102700D03*
X207800Y102700D03*
X147800Y49700D03*
X177800Y49700D03*
X207800Y49700D03*
X33500Y102700D03*
X63500Y102700D03*
X93500Y102700D03*
X33500Y49700D03*
X63500Y49700D03*
X93500Y49700D03*
D10*
X355600Y602996D02*
X355600Y616204D01*
X381000Y616204D02*
X381000Y602996D01*
X406400Y602996D02*
X406400Y616204D01*
X431800Y616204D02*
X431800Y602996D01*
X457200Y602996D02*
X457200Y616204D01*
X457200Y755396D02*
X457200Y768604D01*
X431800Y768604D02*
X431800Y755396D01*
X406400Y755396D02*
X406400Y768604D01*
X381000Y768604D02*
X381000Y755396D01*
X355600Y755396D02*
X355600Y768604D01*
X508000Y616204D02*
X508000Y602996D01*
X533400Y602996D02*
X533400Y616204D01*
X558800Y616204D02*
X558800Y602996D01*
X584200Y602996D02*
X584200Y616204D01*
X609600Y616204D02*
X609600Y602996D01*
X609600Y755396D02*
X609600Y768604D01*
X584200Y768604D02*
X584200Y755396D01*
X558800Y755396D02*
X558800Y768604D01*
X533400Y768604D02*
X533400Y755396D01*
X508000Y755396D02*
X508000Y768604D01*
D11*
X262100Y102700D03*
X292100Y102700D03*
X322100Y102700D03*
X262100Y49700D03*
X292100Y49700D03*
X322100Y49700D03*
X376400Y102700D03*
X406400Y102700D03*
X436400Y102700D03*
X376400Y49700D03*
X406400Y49700D03*
X436400Y49700D03*
X490700Y102700D03*
X520700Y102700D03*
X550700Y102700D03*
X490700Y49700D03*
X520700Y49700D03*
X550700Y49700D03*
X605000Y102700D03*
X635000Y102700D03*
X665000Y102700D03*
X605000Y49700D03*
X635000Y49700D03*
X665000Y49700D03*
X719300Y102700D03*
X749300Y102700D03*
X779300Y102700D03*
X719300Y49700D03*
X749300Y49700D03*
X779300Y49700D03*
X719300Y229700D03*
X749300Y229700D03*
X779300Y229700D03*
X719300Y176700D03*
X749300Y176700D03*
X779300Y176700D03*
X833600Y102700D03*
X863600Y102700D03*
X893600Y102700D03*
X833600Y49700D03*
X863600Y49700D03*
X893600Y49700D03*
X33500Y229700D03*
X63500Y229700D03*
X93500Y229700D03*
X33500Y176700D03*
X63500Y176700D03*
X93500Y176700D03*
X147800Y229700D03*
X177800Y229700D03*
X207800Y229700D03*
X147800Y176700D03*
X177800Y176700D03*
X207800Y176700D03*
X262100Y229700D03*
X292100Y229700D03*
X322100Y229700D03*
X262100Y176700D03*
X292100Y176700D03*
X322100Y176700D03*
X376400Y229700D03*
X406400Y229700D03*
X436400Y229700D03*
X376400Y176700D03*
X406400Y176700D03*
X436400Y176700D03*
X490700Y229700D03*
X520700Y229700D03*
X550700Y229700D03*
X490700Y176700D03*
X520700Y176700D03*
X550700Y176700D03*
X605000Y229700D03*
X635000Y229700D03*
X665000Y229700D03*
X605000Y176700D03*
X635000Y176700D03*
X665000Y176700D03*
X833600Y229700D03*
X863600Y229700D03*
X893600Y229700D03*
X833600Y176700D03*
X863600Y176700D03*
X893600Y176700D03*
X262100Y496400D03*
X292100Y496400D03*
X322100Y496400D03*
X262100Y443400D03*
X292100Y443400D03*
X322100Y443400D03*
X427200Y496400D03*
X457200Y496400D03*
X487200Y496400D03*
X427200Y443400D03*
X457200Y443400D03*
X487200Y443400D03*
D12*
X971550Y749300D03*
X958850Y774700D03*
D13*
X682752Y301752D02*
X684276Y300228D01*
X682752Y301752D02*
X608076Y301752D01*
X120396Y762000D02*
X114300Y762000D01*
X120396Y762000D02*
X137160Y778764D01*
X236220Y778764D01*
X252984Y762000D01*
X254000Y762000D01*
X867156Y786384D02*
X867156Y790956D01*
X867156Y786384D02*
X905256Y748284D01*
X958596Y748284D02*
X970788Y748284D01*
X958596Y748284D02*
X905256Y748284D01*
X970788Y748284D02*
X971550Y749300D01*
X428244Y778764D02*
X411480Y762000D01*
X428244Y778764D02*
X541020Y778764D01*
X557784Y762000D01*
X558800Y762000D01*
X786384Y679704D02*
X786384Y658368D01*
X786384Y640080D01*
X958596Y690372D02*
X958596Y748284D01*
X958596Y690372D02*
X926592Y658368D01*
X786384Y658368D01*
X271272Y778764D02*
X254508Y762000D01*
X271272Y778764D02*
X342900Y778764D01*
X254508Y762000D02*
X254000Y762000D01*
D14*
X684276Y300228D03*
X608076Y301752D03*
X867156Y790956D03*
X786384Y640080D03*
X786384Y679704D03*
X342900Y778764D03*
D13*
X406400Y762000D02*
X411480Y762000D01*
X480060Y356616D02*
X914400Y356616D01*
X480060Y356616D02*
X467868Y368808D01*
X213360Y638556D02*
X89916Y762000D01*
X88900Y762000D01*
D14*
X914400Y356616D03*
X467868Y368808D03*
X213360Y638556D03*
D13*
X534924Y118872D02*
X550164Y103632D01*
X534924Y118872D02*
X452628Y118872D01*
X437388Y103632D01*
X550164Y103632D02*
X550700Y102700D01*
X437388Y103632D02*
X436400Y102700D01*
X995172Y318516D02*
X995172Y323088D01*
X995172Y318516D02*
X905256Y228600D01*
X894588Y228600D01*
X893600Y229700D01*
X877824Y118872D02*
X893064Y103632D01*
X877824Y118872D02*
X795528Y118872D01*
X780288Y103632D01*
X893064Y103632D02*
X893600Y102700D01*
X780288Y103632D02*
X779300Y102700D01*
X893064Y230124D02*
X877824Y245364D01*
X795528Y245364D01*
X780288Y230124D01*
X893064Y230124D02*
X893600Y229700D01*
X780288Y230124D02*
X779300Y229700D01*
X763524Y118872D02*
X778764Y103632D01*
X763524Y118872D02*
X681228Y118872D01*
X665988Y103632D01*
X778764Y103632D02*
X779300Y102700D01*
X665988Y103632D02*
X665000Y102700D01*
X452628Y118872D02*
X452628Y213360D01*
X437388Y228600D01*
X436400Y229700D01*
X406908Y609600D02*
X423672Y626364D01*
X473964Y626364D02*
X541020Y626364D01*
X473964Y626364D02*
X423672Y626364D01*
X541020Y626364D02*
X557784Y609600D01*
X558800Y609600D01*
X960120Y774192D02*
X981456Y752856D01*
X981456Y708660D01*
X928116Y655320D01*
X850392Y655320D01*
X786384Y591312D01*
X786384Y562356D01*
X795528Y553212D01*
X958850Y774700D02*
X960120Y774192D01*
X486156Y480060D02*
X486156Y443484D01*
X486156Y480060D02*
X473964Y492252D01*
X473964Y626364D01*
X486156Y443484D02*
X487200Y443400D01*
X321564Y441960D02*
X321564Y230124D01*
X322100Y229700D01*
X321564Y441960D02*
X322100Y443400D01*
D14*
X995172Y323088D03*
X795528Y553212D03*
D13*
X486506Y689706D02*
X406400Y609600D01*
X114300Y609600D02*
X114300Y479845D01*
X478894Y689506D02*
X558800Y609600D01*
X93500Y285356D02*
X93500Y229700D01*
X482600Y690070D02*
X486506Y689706D01*
X482600Y690070D02*
X478894Y689506D01*
X114300Y479845D02*
X110994Y478476D01*
X95209Y439572D02*
X92995Y434116D01*
X95209Y439572D02*
X95209Y439572D01*
X110994Y478476D01*
X93500Y285356D02*
X78500Y283278D01*
X59461Y285243D02*
X48500Y287112D01*
X59461Y285243D02*
X67539Y284233D01*
X78500Y283278D01*
X48500Y287112D02*
X45405Y288402D01*
X77767Y419857D02*
X92995Y434116D01*
X77767Y419857D02*
X74633Y416678D01*
X54589Y392860D01*
X48096Y381090D02*
X41505Y369142D01*
X48096Y381090D02*
X54589Y392860D01*
X41505Y369142D02*
X40226Y365990D01*
X35342Y349870D01*
X33792Y333799D01*
X33815Y330665D01*
X35576Y314747D01*
X40629Y298877D01*
X41946Y295762D01*
X45405Y288402D01*
X989076Y553212D02*
X992124Y550164D01*
X1019556Y550164D01*
X1024128Y545592D01*
X1024128Y536448D01*
X1021080Y533400D01*
X1021080Y495300D01*
X1033272Y483108D01*
X1037844Y483108D01*
X1046988Y473964D01*
X1046988Y361188D01*
X909828Y224028D01*
X909828Y35052D01*
X886968Y12192D01*
X245364Y12192D01*
X208788Y48768D01*
X207800Y49700D01*
D14*
X989076Y553212D03*
D13*
X315468Y344424D02*
X315468Y301752D01*
X195072Y181356D01*
X195072Y62484D01*
X207264Y50292D01*
X207800Y49700D01*
D14*
X315468Y344424D03*
D13*
X387350Y577850D02*
X355600Y609600D01*
X387350Y577850D02*
X387350Y542290D01*
X387124Y542290D01*
D14*
X387124Y542290D03*
X573251Y499591D03*
D13*
X690598Y482882D02*
X713740Y459740D01*
X690598Y482882D02*
X690598Y488924D01*
X679931Y499591D02*
X573251Y499591D01*
X679931Y499591D02*
X690598Y488924D01*
D14*
X869950Y600710D03*
D13*
X868680Y599440D01*
X844550Y599440D01*
D14*
X844550Y599440D03*
D13*
X807720Y489204D02*
X790956Y472440D01*
X684276Y475488D02*
X635508Y475488D01*
X617220Y457200D01*
X233172Y176784D02*
X208788Y176784D01*
X233172Y176784D02*
X269748Y213360D01*
X323088Y213360D01*
X394716Y284988D01*
X394716Y304800D01*
X208788Y176784D02*
X207800Y176700D01*
D14*
X807720Y489204D03*
X790956Y472440D03*
X684276Y475488D03*
X617220Y457200D03*
X394716Y304800D03*
D13*
X967740Y550164D02*
X976884Y550164D01*
X986028Y559308D01*
X1014984Y559308D01*
X1034796Y539496D01*
X1034796Y489204D01*
X1037844Y486156D01*
X1039368Y486156D01*
X1050036Y475488D01*
X1050036Y359664D01*
X970788Y280416D01*
X970788Y275844D01*
X321564Y175260D02*
X321564Y120396D01*
X309372Y108204D01*
X309372Y44196D01*
X316992Y36576D01*
X460248Y36576D01*
X513588Y89916D01*
X574548Y89916D01*
X649224Y164592D01*
X754380Y164592D01*
X766572Y176784D01*
X766572Y181356D01*
X798576Y213360D01*
X809244Y213360D01*
X813816Y217932D01*
X322100Y176700D02*
X321564Y175260D01*
D14*
X967740Y550164D03*
X970788Y275844D03*
X813816Y217932D03*
D13*
X806196Y458724D02*
X839724Y492252D01*
X786384Y431292D02*
X649224Y431292D01*
X646176Y428244D01*
X626364Y428244D01*
X623316Y431292D01*
X129540Y176784D02*
X94488Y176784D01*
X129540Y176784D02*
X169164Y216408D01*
X220980Y216408D01*
X291084Y286512D01*
X94488Y176784D02*
X93500Y176700D01*
D14*
X839724Y492252D03*
X806196Y458724D03*
X786384Y431292D03*
X623316Y431292D03*
X291084Y286512D03*
D13*
X832104Y661416D02*
X835152Y664464D01*
X832104Y661416D02*
X813816Y661416D01*
X790321Y684911D02*
X789432Y685800D01*
X790321Y684911D02*
X813816Y661416D01*
X620268Y787908D02*
X419100Y787908D01*
X416052Y790956D01*
X405384Y790956D01*
X393192Y778764D01*
X377952Y778764D01*
X368808Y769620D01*
X368808Y751332D01*
X243840Y626364D01*
X222504Y626364D01*
X216408Y620268D01*
X216408Y420624D01*
X138684Y342900D01*
X134112Y342900D01*
D14*
X835152Y664464D03*
X134112Y342900D03*
D13*
X789759Y684911D02*
X790321Y684911D01*
X789759Y684911D02*
X788898Y685772D01*
X741708Y685772D01*
X639572Y787908D02*
X620268Y787908D01*
X639572Y787908D02*
X741708Y685772D01*
X894588Y213360D02*
X894588Y176784D01*
X894588Y213360D02*
X1040892Y359664D01*
X1040892Y445008D01*
X1014984Y463296D02*
X1014984Y541020D01*
X1014984Y463296D02*
X1033272Y445008D01*
X1040892Y445008D01*
X1040892Y446532D01*
D14*
X1040892Y446532D03*
X1014984Y541020D03*
D13*
X894588Y176784D02*
X893600Y176700D01*
X1048512Y486156D02*
X1048512Y499872D01*
X1050036Y501396D01*
X1050036Y533400D01*
X934212Y649224D01*
X882396Y649224D01*
X701040Y176784D02*
X665988Y176784D01*
X701040Y176784D02*
X740664Y216408D01*
X803148Y216408D01*
X818388Y231648D01*
X979932Y275844D02*
X979932Y284988D01*
X1053084Y358140D01*
X1053084Y481584D01*
X1048512Y486156D01*
D14*
X1048512Y486156D03*
X882396Y649224D03*
X818388Y231648D03*
X979932Y275844D03*
D13*
X665988Y176784D02*
X665000Y176700D01*
X1040892Y492252D02*
X1040892Y496824D01*
X1046988Y502920D01*
X1046988Y531876D01*
X1016508Y562356D01*
X897636Y562356D01*
X868680Y591312D01*
X827532Y591312D01*
X813816Y605028D01*
D14*
X1040892Y492252D03*
X813816Y605028D03*
D13*
X487680Y566928D02*
X487680Y496824D01*
X792480Y588264D02*
X797052Y588264D01*
X813816Y605028D01*
D14*
X487680Y566928D03*
X792480Y588264D03*
D13*
X487680Y496824D02*
X487200Y496400D01*
X1018032Y493776D02*
X1034796Y477012D01*
X1018032Y501650D02*
X1018032Y534924D01*
X1018032Y501650D02*
X1018032Y493776D01*
X1018032Y534924D02*
X1021080Y537972D01*
X1021080Y544068D01*
X1018032Y547116D01*
X973836Y547116D01*
X970788Y544068D01*
X795528Y544068D01*
X627888Y711708D01*
X627888Y775716D01*
X618744Y784860D01*
X413004Y784860D01*
X132588Y332232D02*
X76200Y332232D01*
X132588Y332232D02*
X283464Y483108D01*
X309372Y483108D01*
X321564Y495300D01*
X322100Y496400D01*
D14*
X1034796Y477012D03*
X413004Y784860D03*
X76200Y332232D03*
D13*
X998220Y365760D02*
X1001268Y362712D01*
X998220Y365760D02*
X996696Y365760D01*
X993648Y368808D01*
X925068Y368808D01*
X853440Y440436D01*
X749808Y440436D01*
X597408Y592836D01*
X577596Y592836D01*
X571500Y598932D01*
X571500Y620268D01*
X583692Y632460D01*
D14*
X1001268Y362712D03*
X583692Y632460D03*
D13*
X586740Y176784D02*
X551688Y176784D01*
X586740Y176784D02*
X626364Y216408D01*
X688848Y216408D01*
X704088Y231648D01*
X733044Y260604D02*
X909828Y260604D01*
X999744Y350520D01*
X1001268Y350520D01*
D14*
X704088Y231648D03*
X733044Y260604D03*
X1001268Y350520D03*
D13*
X551688Y176784D02*
X550700Y176700D01*
X775716Y15240D02*
X795528Y35052D01*
X775716Y15240D02*
X470916Y15240D01*
X455676Y30480D01*
D14*
X795528Y35052D03*
X455676Y30480D03*
D13*
X976884Y309372D02*
X976884Y313944D01*
X976884Y309372D02*
X915924Y248412D01*
X883920Y248412D01*
X880872Y251460D01*
X519684Y251460D01*
X460248Y310896D01*
X425196Y310896D01*
X406908Y292608D02*
X338328Y224028D01*
X406908Y292608D02*
X425196Y310896D01*
X338328Y224028D02*
X338328Y65532D01*
X323088Y50292D01*
X322100Y49700D01*
D14*
X976884Y313944D03*
X406908Y292608D03*
D13*
X986028Y313944D02*
X986028Y318516D01*
X986028Y313944D02*
X917448Y245364D01*
X882396Y245364D01*
X879348Y248412D01*
X457200Y248412D02*
X437388Y248412D01*
X457200Y248412D02*
X879348Y248412D01*
X437388Y248412D02*
X423672Y234696D01*
X423672Y224028D01*
X435864Y211836D01*
X435864Y176784D01*
X436400Y176700D01*
X457200Y248412D02*
X457200Y304800D01*
D14*
X986028Y318516D03*
X457200Y304800D03*
D13*
X800100Y582168D02*
X835152Y547116D01*
X929640Y547116D01*
X932688Y550164D01*
D14*
X800100Y582168D03*
X932688Y550164D03*
D13*
X355600Y762000D02*
X353060Y764540D01*
X353060Y784860D01*
D14*
X353060Y784860D03*
X351790Y816610D03*
D13*
X313690Y816610D01*
X294640Y835660D01*
D14*
X294640Y835660D03*
X293370Y852170D03*
D13*
X114300Y852170D01*
X23142Y761012D01*
X32059Y349546D02*
X32220Y349245D01*
X30862Y335168D01*
X30735Y335039D01*
X30743Y333935D01*
X30637Y332835D01*
X30768Y330486D02*
X30776Y329381D01*
X30904Y329254D01*
X32445Y315328D01*
X32289Y315025D01*
X32580Y314111D01*
X32685Y313157D01*
X32951Y312944D01*
X35560Y304751D01*
X81464Y171715D02*
X88515Y164664D01*
X113466Y164664D02*
X147320Y130810D01*
X113466Y164664D02*
X88515Y164664D01*
X30646Y332823D02*
X30637Y332835D01*
X35560Y304751D02*
X35560Y244662D01*
X81464Y194715D02*
X81464Y171715D01*
X81464Y194715D02*
X51464Y224715D01*
X32059Y349546D02*
X23142Y358463D01*
X35560Y244662D02*
X51464Y228758D01*
X51464Y224715D01*
X30646Y330608D02*
X30646Y332823D01*
X30646Y330608D02*
X30768Y330486D01*
X23142Y358463D02*
X23142Y761012D01*
X147320Y130810D02*
X172720Y130810D01*
X182880Y140970D01*
D14*
X182880Y140970D03*
X201140Y132080D03*
D13*
X308610Y132080D01*
X309880Y133350D01*
X309245Y133985D01*
D14*
X309245Y133985D03*
X389890Y134620D03*
D13*
X438150Y134620D01*
X439420Y133350D01*
D14*
X439420Y133350D03*
X494030Y130810D03*
D13*
X609600Y130810D01*
X652780Y173990D01*
X652780Y189230D01*
X657860Y194310D01*
X707390Y194310D01*
X735330Y222250D01*
X735330Y238760D01*
D14*
X735330Y238760D03*
X749300Y267970D03*
D13*
X862330Y267970D01*
X914400Y320040D01*
D14*
X914400Y320040D03*
X953908Y374876D03*
D13*
X959076Y374876D01*
X966477Y505968D02*
X969003Y505968D01*
X975868Y499103D01*
X966477Y505968D02*
X964057Y503548D01*
X964057Y489077D02*
X956310Y481330D01*
X964057Y489077D02*
X964057Y503548D01*
X975868Y499103D02*
X975868Y391668D01*
X959076Y374876D01*
D14*
X381000Y567690D03*
D13*
X381000Y529590D01*
D14*
X381000Y529590D03*
X584200Y487680D03*
D13*
X661670Y487680D01*
X662940Y488950D01*
X663575Y488315D01*
D14*
X663575Y488315D03*
X709930Y500380D03*
D13*
X742950Y500380D01*
X800100Y541020D02*
X867156Y473964D01*
X800100Y541020D02*
X794004Y541020D01*
X589788Y745236D01*
X473964Y745236D01*
X457200Y762000D01*
D14*
X867156Y473964D03*
X454660Y731520D03*
D13*
X477520Y731520D01*
X500380Y708660D01*
D14*
X500380Y708660D03*
X543560Y675640D03*
D13*
X637540Y675640D01*
X767080Y546100D01*
D14*
X767080Y546100D03*
X792480Y510540D03*
X792480Y510540D03*
D13*
X815340Y510540D01*
D14*
X815340Y510540D03*
X847625Y508735D03*
D13*
X858520Y497840D01*
X889000Y497840D01*
X891540Y495300D01*
X891540Y490220D02*
X899160Y482600D01*
X899160Y480060D01*
X891540Y490220D02*
X891540Y495300D01*
X111760Y810260D02*
X63500Y762000D01*
X111760Y810260D02*
X1022350Y810260D01*
X1032510Y810260D01*
X1043940Y798830D01*
X1043940Y779780D01*
X1043940Y585470D01*
X1038860Y580390D01*
D14*
X939800Y586740D03*
D13*
X894080Y586740D01*
X843280Y637540D02*
X840740Y637540D01*
X843280Y637540D02*
X894080Y586740D01*
D14*
X840740Y637540D03*
X828040Y647700D03*
D13*
X796290Y647700D01*
X793750Y650240D01*
D15*
X793750Y650240D03*
D14*
X557530Y650240D03*
D13*
X528320Y650240D01*
D14*
X528320Y650240D03*
X429260Y648970D03*
D13*
X425450Y645160D01*
X406400Y645160D01*
D14*
X406400Y645160D03*
X199390Y628650D03*
D13*
X180340Y609600D01*
X165100Y609600D01*
D14*
X142240Y793750D03*
D13*
X403867Y793750D01*
X404121Y794004D01*
X643636Y794004D01*
X748792Y688848D02*
X790695Y688848D01*
X801363Y678180D02*
X882650Y678180D01*
X801363Y678180D02*
X790695Y688848D01*
D14*
X882650Y678180D03*
D13*
X748792Y688848D02*
X643636Y794004D01*
X184024Y762000D02*
X165100Y762000D01*
X266954Y746506D02*
X304800Y708660D01*
X199518Y746506D02*
X184024Y762000D01*
X199518Y746506D02*
X266954Y746506D01*
D14*
X304800Y708660D03*
X320040Y695960D03*
D13*
X360680Y695960D01*
X381000Y675640D01*
D14*
X381000Y675640D03*
X408940Y660400D03*
D13*
X411480Y662940D01*
X439420Y662940D01*
D14*
X439420Y662940D03*
X528320Y662940D03*
D13*
X637540Y662940D01*
X772160Y528320D01*
X772160Y457200D01*
X767080Y452120D01*
D14*
X767080Y452120D03*
X838200Y386080D03*
D13*
X854710Y386080D01*
X875030Y365760D01*
X904694Y365760D02*
X913388Y374454D01*
X913388Y376178D01*
X908565Y381000D01*
X908050Y381000D01*
X906780Y382270D01*
X904694Y365760D02*
X875030Y365760D01*
D14*
X871220Y342900D03*
X871220Y342900D03*
D13*
X662378Y342900D01*
X660882Y341404D01*
X453616Y341404D01*
X368300Y426720D01*
X368300Y541020D01*
X370840Y543560D01*
X330200Y584200D02*
X233680Y584200D01*
X330200Y584200D02*
X370840Y543560D01*
D14*
X233680Y584200D03*
X238760Y645160D03*
D13*
X254282Y660682D01*
X261594Y660682D01*
X275590Y674679D01*
X177800Y741680D02*
X156210Y720090D01*
D14*
X156210Y720090D03*
X138430Y697230D03*
D13*
X138430Y610870D01*
X139700Y609600D01*
X275590Y674679D02*
X275590Y723900D01*
X257810Y741680D01*
X177800Y741680D01*
D14*
X652780Y368300D03*
X652780Y368300D03*
D13*
X487680Y368300D01*
X469900Y386080D01*
D14*
X469900Y386080D03*
X368300Y393700D03*
D13*
X330200Y393700D01*
X327660Y393700D01*
D14*
X330200Y393700D03*
X254000Y393700D03*
D13*
X231140Y393700D01*
X220980Y403860D01*
X218440Y406400D01*
D14*
X220980Y403860D03*
X91440Y472440D03*
D13*
X88900Y474980D01*
X88900Y609600D01*
X63500Y609600D02*
X63500Y577850D01*
D14*
X63500Y577850D03*
X132080Y577850D03*
D13*
X193040Y516890D01*
X193040Y491490D01*
D14*
X193040Y491490D03*
X226060Y488950D03*
D13*
X265430Y528320D01*
X331470Y528320D01*
X340360Y519430D01*
X340360Y472440D01*
D14*
X340360Y472440D03*
X628650Y454660D03*
D13*
X707390Y454660D01*
X720090Y441960D01*
D14*
X720090Y441960D03*
X746760Y421640D03*
D13*
X835660Y421640D01*
D14*
X835660Y421640D03*
X847090Y457200D03*
D13*
X880110Y457200D01*
X882650Y454660D02*
X882650Y420109D01*
X920750Y416560D02*
X922020Y415290D01*
X922020Y400050D01*
X924560Y397510D01*
X932180Y397510D02*
X937260Y392430D01*
X937260Y391160D01*
X882650Y454660D02*
X880110Y457200D01*
X882650Y420109D02*
X886199Y416560D01*
X920750Y416560D01*
X924560Y397510D02*
X932180Y397510D01*
D14*
X960120Y601980D03*
D13*
X929005Y633095D01*
X928370Y633730D01*
D14*
X929005Y633095D03*
X219710Y692150D03*
D13*
X245110Y666750D01*
X259080Y666750D01*
D14*
X259080Y666750D03*
X302260Y651228D03*
D13*
X304800Y648688D01*
X304800Y609600D01*
D14*
X984250Y580390D03*
X210185Y816328D03*
D13*
X235867Y842010D01*
X1037597Y577342D02*
X1040123Y577342D01*
X1046988Y800093D02*
X1033773Y813308D01*
X1046988Y800093D02*
X1046988Y584207D01*
X1040123Y577342D01*
X1033773Y813308D02*
X1005332Y813308D01*
X1018039Y596900D02*
X1037597Y577342D01*
X1018039Y596900D02*
X1000760Y596900D01*
X998220Y596900D01*
X976630Y842010D02*
X235867Y842010D01*
X976630Y842010D02*
X1005332Y813308D01*
D14*
X1000760Y596900D03*
X232410Y817880D03*
D13*
X247650Y833120D01*
X248920Y833120D01*
X248787Y833253D01*
X248671Y833253D01*
D14*
X248671Y833253D03*
X29210Y443230D03*
D13*
X30480Y443230D01*
X44450Y429260D01*
X72390Y429260D01*
X80010Y436880D01*
X80010Y438150D01*
X81280Y438150D01*
D14*
X81280Y438150D03*
X109220Y435610D03*
D13*
X156210Y435610D01*
D14*
X156210Y435610D03*
X189230Y435610D03*
D13*
X203200Y449580D01*
X207010Y449580D01*
D14*
X207010Y449580D03*
X228600Y464820D03*
D13*
X246380Y464820D01*
X247650Y463550D01*
X249908Y463550D01*
D14*
X249908Y463550D03*
X327632Y407670D03*
D13*
X369570Y407670D01*
D14*
X369570Y407670D03*
X571500Y407670D03*
D13*
X622300Y407670D01*
X648970Y381000D01*
X649196Y381000D01*
D14*
X649196Y381000D03*
X854031Y449552D03*
D13*
X866112Y449552D01*
X867692Y451132D02*
X869614Y451132D01*
D14*
X869614Y451132D03*
D13*
X867692Y451132D02*
X866112Y449552D01*
D14*
X289560Y816610D03*
D13*
X272917Y833253D01*
X272415Y833253D01*
D14*
X272415Y833253D03*
X674370Y21308D03*
D13*
X695678Y21308D01*
X712034Y37664D01*
X793612Y46990D02*
X819289Y46990D01*
X793612Y46990D02*
X784286Y37664D01*
X712034Y37664D01*
X868586Y37664D02*
X869022Y38100D01*
X875030Y38100D01*
X828615Y37664D02*
X819289Y46990D01*
X828615Y37664D02*
X868586Y37664D01*
X875030Y38100D02*
X878840Y41910D01*
X888615Y61736D02*
X889776Y61736D01*
X901700Y73660D01*
X878840Y51962D02*
X878840Y41910D01*
X878840Y51962D02*
X888615Y61736D01*
X901700Y73660D02*
X902335Y73025D01*
D14*
X902335Y73025D03*
X1034824Y425792D03*
D13*
X1014388Y425792D01*
X1012825Y427355D01*
X1012190Y427990D01*
X1012825Y427355D02*
X1012825Y461144D01*
X1011936Y462033D01*
X1002030Y497840D02*
X998220Y501650D01*
X1011936Y494284D02*
X1011936Y462033D01*
X1011936Y494284D02*
X1008380Y497840D01*
X1002030Y497840D01*
D14*
X989330Y567690D03*
D13*
X963930Y593090D01*
X951230Y593090D01*
X934720Y609600D01*
X934720Y612140D01*
D14*
X934720Y612140D03*
X944880Y626110D03*
D13*
X922329Y635000D02*
X911860Y635000D01*
X922329Y635000D02*
X926492Y639163D01*
X931827Y639163D02*
X944880Y626110D01*
X931827Y639163D02*
X926492Y639163D01*
D14*
X911860Y635000D03*
X847090Y703580D03*
D13*
X840740Y697230D01*
X753110Y697230D02*
X739140Y711200D01*
D14*
X739140Y711200D03*
X433070Y709930D03*
D13*
X417830Y709930D01*
X403860Y695960D01*
D14*
X403860Y695960D03*
X325120Y675640D03*
D13*
X325120Y590550D01*
X322580Y588010D01*
X238452Y588010D02*
X236194Y590268D01*
X231167Y590268D01*
X287115Y508436D02*
X280064Y501386D01*
X327086Y508436D02*
X334136Y501386D01*
X334136Y491415D01*
X327086Y484364D01*
X274136Y438415D02*
X267086Y431364D01*
X73687Y326164D02*
X70132Y329719D01*
X70132Y334746D01*
X236031Y431364D02*
X267086Y431364D01*
X219992Y579094D02*
X231167Y590268D01*
X219992Y579094D02*
X219992Y486437D01*
X223547Y482882D01*
X265604Y482882D01*
X280064Y497343D01*
X280064Y501386D01*
X236031Y431364D02*
X130831Y326164D01*
X73687Y326164D01*
X316043Y484364D02*
X327086Y484364D01*
X316043Y484364D02*
X274136Y442458D01*
X274136Y438415D01*
X287115Y508436D02*
X327086Y508436D01*
X203200Y467814D02*
X70132Y334746D01*
X753110Y697230D02*
X840740Y697230D01*
X322580Y588010D02*
X238452Y588010D01*
X203200Y609600D02*
X203200Y467814D01*
D14*
X279400Y534670D03*
D13*
X343408Y520693D02*
X343408Y485902D01*
X329431Y534670D02*
X279400Y534670D01*
X329431Y534670D02*
X343408Y520693D01*
X350520Y478790D02*
X356870Y478790D01*
D14*
X356870Y478790D03*
X594360Y478790D03*
D13*
X676910Y478790D01*
X684530Y486410D01*
D14*
X684530Y486410D03*
X731520Y481556D03*
D13*
X755876Y481556D01*
X759460Y485140D01*
X762000Y485140D01*
D14*
X762000Y485140D03*
X790928Y497840D03*
D13*
X810234Y495272D02*
X813788Y491718D01*
X813788Y486691D01*
X793496Y495272D02*
X790928Y497840D01*
X811530Y484433D02*
X813788Y486691D01*
X810234Y495272D02*
X793496Y495272D01*
X811530Y484433D02*
X811530Y472440D01*
X811387Y472440D01*
X811359Y472468D01*
D14*
X811359Y472468D03*
X849630Y468630D03*
D13*
X863909Y468630D01*
X864643Y467896D01*
X971014Y467896D02*
X971550Y467360D01*
X971014Y467896D02*
X864643Y467896D01*
X971550Y467360D02*
X972820Y468630D01*
X972820Y497840D02*
X967740Y502920D01*
X967105Y502285D01*
X967740Y501650D01*
X350520Y478790D02*
X343408Y485902D01*
X972820Y497840D02*
X972820Y468630D01*
D14*
X321310Y754380D03*
D13*
X334010Y754380D01*
X345440Y742950D01*
X346075Y743585D01*
D14*
X346075Y743585D03*
X407670Y723900D03*
D13*
X452120Y723900D01*
X477520Y698500D01*
X600710Y698500D02*
X601980Y699770D01*
X602968Y699770D01*
X603250Y699488D01*
D14*
X603250Y699488D03*
D13*
X600710Y698500D02*
X477520Y698500D01*
D14*
X711200Y683260D03*
D13*
X711200Y640080D01*
D14*
X769620Y581660D03*
X791210Y533400D03*
D13*
X797560Y533400D01*
X808990Y521970D01*
D14*
X808990Y521970D03*
D13*
X769620Y581660D02*
X711200Y640080D01*
D14*
X944880Y551180D03*
D13*
X926393Y552450D02*
X889000Y552450D01*
X926393Y552450D02*
X930175Y556232D01*
X939828Y556232D02*
X944880Y551180D01*
X939828Y556232D02*
X930175Y556232D01*
X889000Y553184D02*
X889000Y552450D01*
D14*
X889000Y553184D03*
D13*
X417576Y626364D02*
X399288Y626364D01*
X417576Y626364D02*
X475488Y684276D01*
X475488Y691896D01*
X477012Y693420D01*
X627888Y693420D01*
X638556Y682752D01*
X816864Y592836D02*
X821436Y592836D01*
X826008Y588264D01*
X867156Y588264D01*
X896112Y559308D01*
X957072Y559308D01*
X960120Y556260D01*
D14*
X399288Y626364D03*
X638556Y682752D03*
X816864Y592836D03*
X960120Y556260D03*
X53694Y359056D03*
D13*
X80926Y359056D01*
X82550Y360680D01*
D14*
X82550Y360680D03*
X114300Y307340D03*
D13*
X137160Y284480D01*
X156210Y284480D02*
X157480Y285750D01*
D14*
X157480Y285750D03*
D13*
X156210Y284480D02*
X137160Y284480D01*
D14*
X163800Y317500D03*
D13*
X191770Y317500D01*
X193040Y317500D01*
D16*
X191770Y317500D03*
D13*
X963168Y624840D02*
X963168Y629412D01*
X963168Y624840D02*
X1053084Y534924D01*
X1053084Y490728D01*
X1054608Y489204D01*
X1054608Y484632D01*
X1056132Y483108D01*
X1056132Y356616D01*
X986028Y286512D01*
X986028Y272796D01*
X982980Y269748D01*
X960120Y269748D01*
X912876Y222504D01*
X912876Y33528D01*
X903732Y24384D01*
X903732Y19812D01*
D14*
X963168Y629412D03*
X903732Y19812D03*
D13*
X725424Y259080D02*
X725424Y266700D01*
X725424Y259080D02*
X729996Y254508D01*
X882396Y254508D01*
X885444Y251460D01*
X905256Y251460D01*
X998220Y344424D01*
X1004316Y344424D01*
X1010412Y350520D01*
D14*
X725424Y266700D03*
X1010412Y350520D03*
D13*
X903732Y373380D02*
X903732Y385572D01*
X851916Y437388D01*
X748284Y437388D01*
X624840Y560832D01*
X542544Y560832D01*
D14*
X903732Y373380D03*
X542544Y560832D03*
D13*
X854964Y443484D02*
X899160Y399288D01*
X854964Y443484D02*
X810768Y443484D01*
X784860Y469392D01*
X784860Y545592D01*
X588264Y742188D01*
X556260Y742188D01*
X553212Y739140D01*
D14*
X1034796Y399288D03*
X553212Y739140D03*
D13*
X772668Y734568D02*
X835152Y734568D01*
X867156Y766572D01*
D14*
X772668Y734568D03*
X867156Y766572D03*
D13*
X609600Y762000D02*
X589788Y781812D01*
X419100Y781812D01*
X416052Y778764D01*
X403860Y778764D01*
X393192Y768096D01*
X393192Y434340D01*
X464820Y362712D01*
X469392Y362712D01*
X478536Y353568D01*
X908304Y353568D01*
X929640Y332232D01*
X934212Y332232D01*
D14*
X934212Y332232D03*
D13*
X539496Y579120D02*
X536448Y576072D01*
X536448Y509016D01*
X682752Y362712D01*
X906780Y362712D01*
X909828Y365760D01*
X918972Y365760D01*
X943356Y341376D01*
X943356Y324612D01*
X946404Y321564D01*
X955548Y321564D01*
D14*
X539496Y579120D03*
X955548Y321564D03*
D13*
X533400Y507492D02*
X533400Y609600D01*
X533400Y507492D02*
X681228Y359664D01*
X908304Y359664D01*
X911352Y362712D01*
X917448Y362712D01*
X940308Y339852D01*
X940308Y323088D01*
X949452Y313944D01*
D14*
X949452Y313944D03*
D13*
X641604Y553212D02*
X585216Y609600D01*
X641604Y553212D02*
X646176Y553212D01*
X661416Y350520D02*
X658368Y347472D01*
X661416Y350520D02*
X906780Y350520D01*
X940308Y316992D01*
X940308Y313944D01*
X585216Y609600D02*
X584200Y609600D01*
D14*
X646176Y553212D03*
X658368Y347472D03*
X940308Y313944D03*
X977900Y619760D03*
M02*
