G04 EAGLE Gerber RS-274X export*
G75*
%MOMM*%
%FSLAX34Y34*%
%LPD*%
%INSoldermask Bottom*%
%IPPOS*%
%AMOC8*
5,1,8,0,0,1.08239X$1,22.5*%
G01*
%ADD10C,1.203200*%
%ADD11C,1.524000*%
%ADD12C,2.153200*%
%ADD13C,1.600200*%
%ADD14C,3.454400*%
%ADD15C,0.959600*%
%ADD16C,0.859600*%


D10*
X38100Y838200D03*
X1016000Y838200D03*
X1016000Y38100D03*
X50800Y520700D03*
D11*
X203200Y602996D02*
X203200Y616204D01*
X228600Y616204D02*
X228600Y602996D01*
X254000Y602996D02*
X254000Y616204D01*
X279400Y616204D02*
X279400Y602996D01*
X304800Y602996D02*
X304800Y616204D01*
X304800Y755396D02*
X304800Y768604D01*
X279400Y768604D02*
X279400Y755396D01*
X254000Y755396D02*
X254000Y768604D01*
X228600Y768604D02*
X228600Y755396D01*
X203200Y755396D02*
X203200Y768604D01*
X63500Y616204D02*
X63500Y602996D01*
X88900Y602996D02*
X88900Y616204D01*
X114300Y616204D02*
X114300Y602996D01*
X139700Y602996D02*
X139700Y616204D01*
X165100Y616204D02*
X165100Y602996D01*
X165100Y755396D02*
X165100Y768604D01*
X139700Y768604D02*
X139700Y755396D01*
X114300Y755396D02*
X114300Y768604D01*
X88900Y768604D02*
X88900Y755396D01*
X63500Y755396D02*
X63500Y768604D01*
D12*
X147800Y102700D03*
X177800Y102700D03*
X207800Y102700D03*
X147800Y49700D03*
X177800Y49700D03*
X207800Y49700D03*
X33500Y102700D03*
X63500Y102700D03*
X93500Y102700D03*
X33500Y49700D03*
X63500Y49700D03*
X93500Y49700D03*
D11*
X355600Y602996D02*
X355600Y616204D01*
X381000Y616204D02*
X381000Y602996D01*
X406400Y602996D02*
X406400Y616204D01*
X431800Y616204D02*
X431800Y602996D01*
X457200Y602996D02*
X457200Y616204D01*
X457200Y755396D02*
X457200Y768604D01*
X431800Y768604D02*
X431800Y755396D01*
X406400Y755396D02*
X406400Y768604D01*
X381000Y768604D02*
X381000Y755396D01*
X355600Y755396D02*
X355600Y768604D01*
X508000Y616204D02*
X508000Y602996D01*
X533400Y602996D02*
X533400Y616204D01*
X558800Y616204D02*
X558800Y602996D01*
X584200Y602996D02*
X584200Y616204D01*
X609600Y616204D02*
X609600Y602996D01*
X609600Y755396D02*
X609600Y768604D01*
X584200Y768604D02*
X584200Y755396D01*
X558800Y755396D02*
X558800Y768604D01*
X533400Y768604D02*
X533400Y755396D01*
X508000Y755396D02*
X508000Y768604D01*
D12*
X262100Y102700D03*
X292100Y102700D03*
X322100Y102700D03*
X262100Y49700D03*
X292100Y49700D03*
X322100Y49700D03*
X376400Y102700D03*
X406400Y102700D03*
X436400Y102700D03*
X376400Y49700D03*
X406400Y49700D03*
X436400Y49700D03*
X490700Y102700D03*
X520700Y102700D03*
X550700Y102700D03*
X490700Y49700D03*
X520700Y49700D03*
X550700Y49700D03*
X605000Y102700D03*
X635000Y102700D03*
X665000Y102700D03*
X605000Y49700D03*
X635000Y49700D03*
X665000Y49700D03*
X719300Y102700D03*
X749300Y102700D03*
X779300Y102700D03*
X719300Y49700D03*
X749300Y49700D03*
X779300Y49700D03*
X719300Y229700D03*
X749300Y229700D03*
X779300Y229700D03*
X719300Y176700D03*
X749300Y176700D03*
X779300Y176700D03*
X833600Y102700D03*
X863600Y102700D03*
X893600Y102700D03*
X833600Y49700D03*
X863600Y49700D03*
X893600Y49700D03*
X33500Y229700D03*
X63500Y229700D03*
X93500Y229700D03*
X33500Y176700D03*
X63500Y176700D03*
X93500Y176700D03*
X147800Y229700D03*
X177800Y229700D03*
X207800Y229700D03*
X147800Y176700D03*
X177800Y176700D03*
X207800Y176700D03*
X262100Y229700D03*
X292100Y229700D03*
X322100Y229700D03*
X262100Y176700D03*
X292100Y176700D03*
X322100Y176700D03*
X376400Y229700D03*
X406400Y229700D03*
X436400Y229700D03*
X376400Y176700D03*
X406400Y176700D03*
X436400Y176700D03*
X490700Y229700D03*
X520700Y229700D03*
X550700Y229700D03*
X490700Y176700D03*
X520700Y176700D03*
X550700Y176700D03*
X605000Y229700D03*
X635000Y229700D03*
X665000Y229700D03*
X605000Y176700D03*
X635000Y176700D03*
X665000Y176700D03*
X833600Y229700D03*
X863600Y229700D03*
X893600Y229700D03*
X833600Y176700D03*
X863600Y176700D03*
X893600Y176700D03*
X262100Y496400D03*
X292100Y496400D03*
X322100Y496400D03*
X262100Y443400D03*
X292100Y443400D03*
X322100Y443400D03*
X427200Y496400D03*
X457200Y496400D03*
X487200Y496400D03*
X427200Y443400D03*
X457200Y443400D03*
X487200Y443400D03*
D13*
X971550Y749300D03*
X958850Y774700D03*
D14*
X914400Y685800D03*
X1016000Y685800D03*
D15*
X684276Y300228D03*
X608076Y301752D03*
X867156Y790956D03*
X786384Y640080D03*
X786384Y679704D03*
X342900Y778764D03*
X914400Y356616D03*
X467868Y368808D03*
X213360Y638556D03*
X995172Y323088D03*
X795528Y553212D03*
X989076Y553212D03*
X315468Y344424D03*
X387124Y542290D03*
X573251Y499591D03*
X869950Y600710D03*
X844550Y599440D03*
X807720Y489204D03*
X790956Y472440D03*
X684276Y475488D03*
X617220Y457200D03*
X394716Y304800D03*
X967740Y550164D03*
X970788Y275844D03*
X813816Y217932D03*
X839724Y492252D03*
X806196Y458724D03*
X786384Y431292D03*
X623316Y431292D03*
X291084Y286512D03*
X835152Y664464D03*
X134112Y342900D03*
X1040892Y446532D03*
X1014984Y541020D03*
X1048512Y486156D03*
X882396Y649224D03*
X818388Y231648D03*
X979932Y275844D03*
X1040892Y492252D03*
X813816Y605028D03*
X487680Y566928D03*
X792480Y588264D03*
X1034796Y477012D03*
X413004Y784860D03*
X76200Y332232D03*
X1001268Y362712D03*
X583692Y632460D03*
X704088Y231648D03*
X733044Y260604D03*
X1001268Y350520D03*
X795528Y35052D03*
X455676Y30480D03*
X976884Y313944D03*
X406908Y292608D03*
X986028Y318516D03*
X457200Y304800D03*
X800100Y582168D03*
X932688Y550164D03*
X353060Y784860D03*
X351790Y816610D03*
X294640Y835660D03*
X293370Y852170D03*
X182880Y140970D03*
X201140Y132080D03*
X309245Y133985D03*
X389890Y134620D03*
X439420Y133350D03*
X494030Y130810D03*
X735330Y238760D03*
X749300Y267970D03*
X914400Y320040D03*
X953908Y374876D03*
X381000Y567690D03*
X381000Y529590D03*
X584200Y487680D03*
X663575Y488315D03*
X709930Y500380D03*
X867156Y473964D03*
X454660Y731520D03*
X500380Y708660D03*
X543560Y675640D03*
X767080Y546100D03*
X792480Y510540D03*
X792480Y510540D03*
X815340Y510540D03*
X847625Y508735D03*
X939800Y586740D03*
X840740Y637540D03*
X828040Y647700D03*
D16*
X793750Y650240D03*
D15*
X557530Y650240D03*
X528320Y650240D03*
X429260Y648970D03*
X406400Y645160D03*
X199390Y628650D03*
X142240Y793750D03*
X882650Y678180D03*
X304800Y708660D03*
X320040Y695960D03*
X381000Y675640D03*
X408940Y660400D03*
X439420Y662940D03*
X528320Y662940D03*
X767080Y452120D03*
X838200Y386080D03*
X871220Y342900D03*
X871220Y342900D03*
X233680Y584200D03*
X238760Y645160D03*
X156210Y720090D03*
X138430Y697230D03*
X652780Y368300D03*
X652780Y368300D03*
X469900Y386080D03*
X368300Y393700D03*
X330200Y393700D03*
X254000Y393700D03*
X220980Y403860D03*
X91440Y472440D03*
X63500Y577850D03*
X132080Y577850D03*
X193040Y491490D03*
X226060Y488950D03*
X340360Y472440D03*
X628650Y454660D03*
X720090Y441960D03*
X746760Y421640D03*
X835660Y421640D03*
X847090Y457200D03*
X960120Y601980D03*
X929005Y633095D03*
X219710Y692150D03*
X259080Y666750D03*
X302260Y651228D03*
X984250Y580390D03*
X210185Y816328D03*
X1000760Y596900D03*
X232410Y817880D03*
X248671Y833253D03*
X29210Y443230D03*
X81280Y438150D03*
X109220Y435610D03*
X156210Y435610D03*
X189230Y435610D03*
X207010Y449580D03*
X228600Y464820D03*
X249908Y463550D03*
X327632Y407670D03*
X369570Y407670D03*
X571500Y407670D03*
X649196Y381000D03*
X854031Y449552D03*
X869614Y451132D03*
X289560Y816610D03*
X272415Y833253D03*
X674370Y21308D03*
X902335Y73025D03*
X1034824Y425792D03*
X989330Y567690D03*
X934720Y612140D03*
X944880Y626110D03*
X911860Y635000D03*
X847090Y703580D03*
X739140Y711200D03*
X433070Y709930D03*
X403860Y695960D03*
X325120Y675640D03*
X279400Y534670D03*
X356870Y478790D03*
X594360Y478790D03*
X684530Y486410D03*
X731520Y481556D03*
X762000Y485140D03*
X790928Y497840D03*
X811359Y472468D03*
X849630Y468630D03*
X321310Y754380D03*
X346075Y743585D03*
X407670Y723900D03*
X603250Y699488D03*
X711200Y683260D03*
X769620Y581660D03*
X791210Y533400D03*
X808990Y521970D03*
X944880Y551180D03*
X889000Y553184D03*
X399288Y626364D03*
X638556Y682752D03*
X816864Y592836D03*
X960120Y556260D03*
X53694Y359056D03*
X82550Y360680D03*
X114300Y307340D03*
X157480Y285750D03*
X163800Y317500D03*
X963168Y629412D03*
X903732Y19812D03*
X725424Y266700D03*
X1010412Y350520D03*
X903732Y373380D03*
X542544Y560832D03*
X1034796Y399288D03*
X553212Y739140D03*
X772668Y734568D03*
X867156Y766572D03*
X934212Y332232D03*
X539496Y579120D03*
X955548Y321564D03*
X949452Y313944D03*
X646176Y553212D03*
X658368Y347472D03*
X940308Y313944D03*
X977900Y619760D03*
M02*
