M48
;GenerationSoftware,Autodesk,EAGLE,9.6.2*%
;CreationDate,2022-06-23T21:47:29Z*%
FMAT,2
ICI,OFF
METRIC,TZ,000.000
T6C0.350
T5C0.813
T4C0.889
T3C1.000
T2C1.300
T1C3.251
%
G90
M71
T1
X91440Y68580
X101600Y68580
T2
X66500Y22970
X63500Y22970
X60500Y22970
X55070Y17670
X52070Y17670
X49070Y17670
X52070Y22970
X49070Y22970
X43640Y17670
X40640Y17670
X37640Y17670
X43640Y22970
X40640Y22970
X37640Y22970
X32210Y17670
X29210Y17670
X26210Y17670
X32210Y22970
X29210Y22970
X26210Y22970
X20780Y17670
X17780Y17670
X14780Y17670
X20780Y22970
X17780Y22970
X14780Y22970
X9350Y17670
X55070Y22970
X6350Y17670
X3350Y17670
X9350Y22970
X6350Y22970
X3350Y22970
X89360Y4970
X86360Y4970
X83360Y4970
X89360Y10270
X86360Y10270
X83360Y10270
X77930Y17670
X74930Y17670
X71930Y17670
X77930Y22970
X74930Y22970
X71930Y22970
X77930Y4970
X74930Y4970
X71930Y4970
X77930Y10270
X74930Y10270
X71930Y10270
X66500Y4970
X63500Y4970
X60500Y4970
X66500Y10270
X63500Y10270
X60500Y10270
X55070Y4970
X52070Y4970
X49070Y4970
X55070Y10270
X52070Y10270
X49070Y10270
X40640Y4970
X37640Y4970
X43640Y10270
X40640Y10270
X37640Y10270
X32210Y4970
X29210Y4970
X26210Y4970
X32210Y10270
X29210Y10270
X26210Y10270
X63500Y17670
X60500Y17670
X20780Y4970
X3350Y10270
X6350Y10270
X9350Y10270
X3350Y4970
X43640Y4970
X6350Y4970
X9350Y4970
X14780Y10270
X17780Y10270
X20780Y10270
X14780Y4970
X17780Y4970
X66500Y17670
X83360Y22970
X86360Y22970
X89360Y22970
X83360Y17670
X86360Y17670
X89360Y17670
X26210Y49640
X29210Y49640
X32210Y49640
X26210Y44340
X29210Y44340
X32210Y44340
X42720Y49640
X45720Y49640
X48720Y49640
X42720Y44340
X45720Y44340
X48720Y44340
T3
X3810Y83820
X101600Y83820
X101600Y3810
X5080Y52070
T4
X97155Y74930
X95885Y77470
T5
X30480Y76200
X43180Y60960
X45720Y60960
X45720Y76200
X43180Y76200
X40640Y76200
X38100Y76200
X35560Y76200
X50800Y60960
X53340Y60960
X55880Y60960
X58420Y60960
X60960Y60960
X60960Y76200
X58420Y76200
X55880Y76200
X53340Y76200
X50800Y76200
X40640Y60960
X20320Y60960
X22860Y60960
X25400Y60960
X27940Y60960
X30480Y60960
X27940Y76200
X25400Y76200
X22860Y76200
X20320Y76200
X6350Y60960
X8890Y60960
X11430Y60960
X13970Y60960
X16510Y60960
X16510Y76200
X13970Y76200
X11430Y76200
X8890Y76200
X6350Y76200
X35560Y60960
X38100Y60960
T6
X86716Y47396
X93269Y55016
X80010Y58217
X45720Y30480
X98603Y31852
X40691Y29261
X97688Y31394
X45568Y3048
X79553Y3505
X100127Y35052
X73304Y26060
X70409Y23165
X58369Y63246
X100127Y36271
X7620Y33223
X41300Y78486
X103480Y47701
X79248Y58826
X48768Y56693
X81382Y60503
X104089Y49225
X97993Y27584
X81839Y23165
X88240Y64922
X104851Y48616
X104089Y44653
X13411Y34290
X83515Y66446
X29108Y28651
X62332Y43129
X78638Y43129
X80620Y45872
X83972Y49225
X81382Y21793
X97079Y27584
X96774Y55016
X39472Y30480
X61722Y45720
X68428Y47549
X79096Y47244
X80772Y48920
X31547Y34442
X98908Y55321
X79553Y55321
X99517Y32309
X21336Y63856
X101498Y54102
X46787Y36881
X91440Y35662
X34290Y77876
X78638Y67970
X78638Y64008
X86716Y79096
X60808Y30175
X68428Y30023
X65837Y34747
X64618Y55321
X94945Y31394
X95555Y32156
X53950Y57912
X93421Y33223
X86716Y76657
X77267Y73457
X55321Y73914
X103480Y39929
X94031Y31394
X54254Y56083
X90373Y37338
X101041Y35052
X72542Y26670
X90373Y1981
X96317Y62941
X96012Y55626
X81686Y59284
X63856Y68275
X39929Y62636
M30