M48
;GenerationSoftware,Autodesk,EAGLE,9.6.2*%
;CreationDate,2022-07-06T17:11:28Z*%
FMAT,2
ICI,OFF
METRIC,TZ,000.000
T7C0.250
T6C0.350
T5C0.813
T4C0.889
T3C1.000
T2C1.300
T1C3.251
%
G90
M71
T1
X91440Y68580
X101600Y68580
T2
X9350Y4970
X14780Y17670
X17780Y17670
X20780Y17670
X26210Y22970
X29210Y22970
X32210Y22970
X26210Y17670
X29210Y17670
X32210Y17670
X37640Y22970
X40640Y22970
X43640Y22970
X37640Y17670
X40640Y17670
X43640Y17670
X49070Y22970
X63500Y10270
X52070Y22970
X55070Y22970
X49070Y17670
X52070Y17670
X55070Y17670
X60500Y22970
X63500Y22970
X14780Y10270
X17780Y10270
X20780Y10270
X14780Y4970
X17780Y4970
X20780Y4970
X3350Y10270
X6350Y10270
X9350Y10270
X3350Y4970
X6350Y4970
X66500Y22970
X60500Y17670
X63500Y17670
X66500Y17670
X86360Y22970
X89360Y22970
X83360Y17670
X86360Y17670
X89360Y17670
X26210Y49640
X29210Y49640
X32210Y49640
X26210Y44340
X29210Y44340
X32210Y44340
X42720Y49640
X45720Y49640
X48720Y49640
X42720Y44340
X45720Y44340
X48720Y44340
X26210Y10270
X29210Y10270
X32210Y10270
X26210Y4970
X29210Y4970
X32210Y4970
X37640Y10270
X40640Y10270
X43640Y10270
X37640Y4970
X40640Y4970
X43640Y4970
X49070Y10270
X52070Y10270
X55070Y10270
X49070Y4970
X52070Y4970
X55070Y4970
X60500Y10270
X83360Y22970
X66500Y10270
X60500Y4970
X63500Y4970
X66500Y4970
X71930Y10270
X74930Y10270
X77930Y10270
X71930Y4970
X74930Y4970
X77930Y4970
X71930Y22970
X74930Y22970
X77930Y22970
X71930Y17670
X74930Y17670
X77930Y17670
X83360Y10270
X86360Y10270
X89360Y10270
X83360Y4970
X86360Y4970
X89360Y4970
X3350Y22970
X6350Y22970
X9350Y22970
X3350Y17670
X6350Y17670
X9350Y17670
X14780Y22970
X17780Y22970
X20780Y22970
T3
X3810Y83820
X101600Y83820
X101600Y3810
X5080Y52070
T4
X95885Y77470
X97155Y74930
T5
X25400Y60960
X27940Y60960
X30480Y60960
X30480Y76200
X27940Y76200
X25400Y76200
X22860Y76200
X20320Y76200
X6350Y60960
X13970Y60960
X16510Y60960
X16510Y76200
X13970Y76200
X11430Y76200
X8890Y76200
X6350Y76200
X11430Y60960
X35560Y60960
X38100Y60960
X40640Y60960
X43180Y60960
X45720Y60960
X45720Y76200
X43180Y76200
X40640Y76200
X38100Y76200
X35560Y76200
X50800Y60960
X53340Y60960
X20320Y60960
X58420Y60960
X60960Y60960
X60960Y76200
X58420Y76200
X55880Y60960
X53340Y76200
X50800Y76200
X8890Y60960
X22860Y60960
X55880Y76200
T6
X90233Y7302
X103482Y42579
X98933Y56769
X93472Y61214
X94488Y62611
X91186Y63500
X84709Y70358
X73914Y71120
X43307Y70993
X40386Y69596
X32512Y67564
X27940Y53467
X35687Y47879
X59436Y47879
X68453Y48641
X73152Y48156
X76200Y48514
X79093Y49784
X81136Y47247
X84963Y46863
X32131Y75438
X34608Y74359
X40767Y72390
X60325Y69949
X71120Y68326
X76962Y58166
X79121Y53340
X80899Y52197
X58369Y63246
X88900Y55318
X39929Y62636
X63856Y68275
X81686Y59284
X96012Y55626
X5369Y35906
X8255Y36068
X11430Y30734
X15748Y28575
X16380Y31750
X96317Y62941
X90373Y1981
X72542Y26670
X101041Y35052
X90373Y37338
X54254Y56083
X103480Y39929
X55321Y73914
X77267Y73457
X86716Y76657
X93421Y33223
X53950Y57912
X95555Y32156
X94945Y31394
X64618Y55321
X65837Y34747
X94031Y31394
X97790Y61976
X68428Y30023
X60808Y30175
X86716Y79096
X78638Y64008
X78638Y67970
X34290Y77876
X91440Y35662
X46787Y36881
X21336Y63856
X99517Y32309
X79553Y55321
X98908Y55321
X31547Y34442
X38712Y54229
X57325Y49959
X86995Y60071
X94488Y55118
X84455Y59944
X80772Y48920
X79096Y47244
X68428Y47549
X61722Y45720
X39472Y30480
X96774Y55016
X97079Y27584
X81382Y21793
X83972Y49225
X80620Y45872
X78638Y43129
X62332Y43129
X29108Y28651
X83515Y66446
X13411Y34290
X104089Y44653
X101498Y54102
X104851Y48616
X88240Y64922
X81839Y23165
X97993Y27584
X104089Y49225
X81382Y60503
X48768Y56693
X79248Y58826
X103480Y47701
X41300Y78486
X7620Y33223
X100127Y36271
X70409Y23165
X73304Y26060
X100127Y35052
X79553Y3505
X45568Y3048
X97688Y31394
X40691Y29261
X98603Y31852
X45720Y30480
X80010Y58217
X93269Y55016
X35306Y78486
X35179Y81661
X29464Y83566
X29337Y85217
X18288Y14097
X20114Y13208
X30924Y13398
X38989Y13462
X43942Y13335
X49403Y13081
X73533Y23876
X74930Y26797
X91440Y32004
X95391Y37488
X38100Y56769
X38100Y52959
X58420Y48768
X66358Y48831
X70993Y50038
X86716Y47396
X45466Y73152
X50038Y70866
X54356Y67564
X76708Y54610
X79248Y51054
X79248Y51054
X81534Y51054
X84763Y50873
X93980Y58674
X84074Y63754
X82804Y64770
X55753Y65024
X52832Y65024
X42926Y64897
X40640Y64516
X19939Y62865
X14224Y79375
X88265Y67818
X30480Y70866
X32004Y69596
X38100Y67564
X40894Y66040
X43942Y66294
X52832Y66294
X76708Y45212
X83820Y38608
X87122Y34290
X87122Y34290
X23368Y58420
X23876Y64516
X24867Y83325
X15621Y72009
X13843Y69723
X65278Y36830
X65278Y36830
X46990Y38608
X36830Y39370
X33020Y39370
X25400Y39370
X22098Y40386
X9144Y47244
X6350Y57785
X13208Y57785
X19304Y49149
X22606Y48895
X34036Y47244
X62865Y45466
X72009Y44196
X74676Y42164
X83566Y42164
X84709Y45720
X96012Y60198
X92900Y63309
X21971Y69215
X25908Y66675
X30226Y65123
X98425Y58039
X21019Y81633
X100076Y59690
X23241Y81788
X2921Y44323
X8128Y43815
X10922Y43561
X15621Y43561
X18923Y43561
X20701Y44958
X22860Y46482
X24991Y46355
X32763Y40767
X36957Y40767
X57150Y40767
X64920Y38100
X85403Y44955
X86961Y45113
X28956Y81661
X27241Y83325
X67437Y2131
T7
X79375Y65024
M30