G04 EAGLE Gerber RS-274X export*
G75*
%MOMM*%
%FSLAX34Y34*%
%LPD*%
%IN*%
%IPPOS*%
%AMOC8*
5,1,8,0,0,1.08239X$1,22.5*%
G01*
%ADD10C,0.254000*%


D10*
X-12700Y876200D02*
X0Y0D01*
X1076200Y0D01*
X1063500Y876200D01*
X-12700Y876200D01*
X43100Y837919D02*
X43037Y837361D01*
X42912Y836814D01*
X42727Y836284D01*
X42483Y835778D01*
X42184Y835302D01*
X41834Y834863D01*
X41437Y834466D01*
X40998Y834116D01*
X40522Y833817D01*
X40016Y833573D01*
X39486Y833388D01*
X38939Y833263D01*
X38381Y833200D01*
X37819Y833200D01*
X37261Y833263D01*
X36714Y833388D01*
X36184Y833573D01*
X35678Y833817D01*
X35202Y834116D01*
X34763Y834466D01*
X34366Y834863D01*
X34016Y835302D01*
X33717Y835778D01*
X33473Y836284D01*
X33288Y836814D01*
X33163Y837361D01*
X33100Y837919D01*
X33100Y838481D01*
X33163Y839039D01*
X33288Y839586D01*
X33473Y840116D01*
X33717Y840622D01*
X34016Y841098D01*
X34366Y841537D01*
X34763Y841934D01*
X35202Y842284D01*
X35678Y842583D01*
X36184Y842827D01*
X36714Y843012D01*
X37261Y843137D01*
X37819Y843200D01*
X38381Y843200D01*
X38939Y843137D01*
X39486Y843012D01*
X40016Y842827D01*
X40522Y842583D01*
X40998Y842284D01*
X41437Y841934D01*
X41834Y841537D01*
X42184Y841098D01*
X42483Y840622D01*
X42727Y840116D01*
X42912Y839586D01*
X43037Y839039D01*
X43100Y838481D01*
X43100Y837919D01*
X1021000Y837919D02*
X1020937Y837361D01*
X1020812Y836814D01*
X1020627Y836284D01*
X1020383Y835778D01*
X1020084Y835302D01*
X1019734Y834863D01*
X1019337Y834466D01*
X1018898Y834116D01*
X1018422Y833817D01*
X1017916Y833573D01*
X1017386Y833388D01*
X1016839Y833263D01*
X1016281Y833200D01*
X1015719Y833200D01*
X1015161Y833263D01*
X1014614Y833388D01*
X1014084Y833573D01*
X1013578Y833817D01*
X1013102Y834116D01*
X1012663Y834466D01*
X1012266Y834863D01*
X1011916Y835302D01*
X1011617Y835778D01*
X1011373Y836284D01*
X1011188Y836814D01*
X1011063Y837361D01*
X1011000Y837919D01*
X1011000Y838481D01*
X1011063Y839039D01*
X1011188Y839586D01*
X1011373Y840116D01*
X1011617Y840622D01*
X1011916Y841098D01*
X1012266Y841537D01*
X1012663Y841934D01*
X1013102Y842284D01*
X1013578Y842583D01*
X1014084Y842827D01*
X1014614Y843012D01*
X1015161Y843137D01*
X1015719Y843200D01*
X1016281Y843200D01*
X1016839Y843137D01*
X1017386Y843012D01*
X1017916Y842827D01*
X1018422Y842583D01*
X1018898Y842284D01*
X1019337Y841934D01*
X1019734Y841537D01*
X1020084Y841098D01*
X1020383Y840622D01*
X1020627Y840116D01*
X1020812Y839586D01*
X1020937Y839039D01*
X1021000Y838481D01*
X1021000Y837919D01*
X1021000Y37819D02*
X1020937Y37261D01*
X1020812Y36714D01*
X1020627Y36184D01*
X1020383Y35678D01*
X1020084Y35202D01*
X1019734Y34763D01*
X1019337Y34366D01*
X1018898Y34016D01*
X1018422Y33717D01*
X1017916Y33473D01*
X1017386Y33288D01*
X1016839Y33163D01*
X1016281Y33100D01*
X1015719Y33100D01*
X1015161Y33163D01*
X1014614Y33288D01*
X1014084Y33473D01*
X1013578Y33717D01*
X1013102Y34016D01*
X1012663Y34366D01*
X1012266Y34763D01*
X1011916Y35202D01*
X1011617Y35678D01*
X1011373Y36184D01*
X1011188Y36714D01*
X1011063Y37261D01*
X1011000Y37819D01*
X1011000Y38381D01*
X1011063Y38939D01*
X1011188Y39486D01*
X1011373Y40016D01*
X1011617Y40522D01*
X1011916Y40998D01*
X1012266Y41437D01*
X1012663Y41834D01*
X1013102Y42184D01*
X1013578Y42483D01*
X1014084Y42727D01*
X1014614Y42912D01*
X1015161Y43037D01*
X1015719Y43100D01*
X1016281Y43100D01*
X1016839Y43037D01*
X1017386Y42912D01*
X1017916Y42727D01*
X1018422Y42483D01*
X1018898Y42184D01*
X1019337Y41834D01*
X1019734Y41437D01*
X1020084Y40998D01*
X1020383Y40522D01*
X1020627Y40016D01*
X1020812Y39486D01*
X1020937Y38939D01*
X1021000Y38381D01*
X1021000Y37819D01*
X55800Y520419D02*
X55737Y519861D01*
X55612Y519314D01*
X55427Y518784D01*
X55183Y518278D01*
X54884Y517802D01*
X54534Y517363D01*
X54137Y516966D01*
X53698Y516616D01*
X53222Y516317D01*
X52716Y516073D01*
X52186Y515888D01*
X51639Y515763D01*
X51081Y515700D01*
X50519Y515700D01*
X49961Y515763D01*
X49414Y515888D01*
X48884Y516073D01*
X48378Y516317D01*
X47902Y516616D01*
X47463Y516966D01*
X47066Y517363D01*
X46716Y517802D01*
X46417Y518278D01*
X46173Y518784D01*
X45988Y519314D01*
X45863Y519861D01*
X45800Y520419D01*
X45800Y520981D01*
X45863Y521539D01*
X45988Y522086D01*
X46173Y522616D01*
X46417Y523122D01*
X46716Y523598D01*
X47066Y524037D01*
X47463Y524434D01*
X47902Y524784D01*
X48378Y525083D01*
X48884Y525327D01*
X49414Y525512D01*
X49961Y525637D01*
X50519Y525700D01*
X51081Y525700D01*
X51639Y525637D01*
X52186Y525512D01*
X52716Y525327D01*
X53222Y525083D01*
X53698Y524784D01*
X54137Y524434D01*
X54534Y524037D01*
X54884Y523598D01*
X55183Y523122D01*
X55427Y522616D01*
X55612Y522086D01*
X55737Y521539D01*
X55800Y520981D01*
X55800Y520419D01*
X930656Y685268D02*
X930586Y684206D01*
X930447Y683151D01*
X930240Y682107D01*
X929964Y681079D01*
X929622Y680071D01*
X929215Y679087D01*
X928744Y678133D01*
X928212Y677211D01*
X927621Y676326D01*
X926973Y675482D01*
X926271Y674682D01*
X925518Y673929D01*
X924718Y673227D01*
X923874Y672579D01*
X922989Y671988D01*
X922067Y671456D01*
X921113Y670985D01*
X920129Y670578D01*
X919121Y670236D01*
X918093Y669960D01*
X917049Y669753D01*
X915994Y669614D01*
X914932Y669544D01*
X913868Y669544D01*
X912806Y669614D01*
X911751Y669753D01*
X910707Y669960D01*
X909679Y670236D01*
X908671Y670578D01*
X907687Y670985D01*
X906733Y671456D01*
X905811Y671988D01*
X904926Y672579D01*
X904082Y673227D01*
X903282Y673929D01*
X902529Y674682D01*
X901827Y675482D01*
X901179Y676326D01*
X900588Y677211D01*
X900056Y678133D01*
X899585Y679087D01*
X899178Y680071D01*
X898836Y681079D01*
X898560Y682107D01*
X898353Y683151D01*
X898214Y684206D01*
X898144Y685268D01*
X898144Y686332D01*
X898214Y687394D01*
X898353Y688449D01*
X898560Y689493D01*
X898836Y690521D01*
X899178Y691529D01*
X899585Y692513D01*
X900056Y693467D01*
X900588Y694389D01*
X901179Y695274D01*
X901827Y696118D01*
X902529Y696918D01*
X903282Y697671D01*
X904082Y698373D01*
X904926Y699021D01*
X905811Y699612D01*
X906733Y700144D01*
X907687Y700615D01*
X908671Y701022D01*
X909679Y701364D01*
X910707Y701640D01*
X911751Y701847D01*
X912806Y701986D01*
X913868Y702056D01*
X914932Y702056D01*
X915994Y701986D01*
X917049Y701847D01*
X918093Y701640D01*
X919121Y701364D01*
X920129Y701022D01*
X921113Y700615D01*
X922067Y700144D01*
X922989Y699612D01*
X923874Y699021D01*
X924718Y698373D01*
X925518Y697671D01*
X926271Y696918D01*
X926973Y696118D01*
X927621Y695274D01*
X928212Y694389D01*
X928744Y693467D01*
X929215Y692513D01*
X929622Y691529D01*
X929964Y690521D01*
X930240Y689493D01*
X930447Y688449D01*
X930586Y687394D01*
X930656Y686332D01*
X930656Y685268D01*
X1032256Y685268D02*
X1032186Y684206D01*
X1032047Y683151D01*
X1031840Y682107D01*
X1031564Y681079D01*
X1031222Y680071D01*
X1030815Y679087D01*
X1030344Y678133D01*
X1029812Y677211D01*
X1029221Y676326D01*
X1028573Y675482D01*
X1027871Y674682D01*
X1027118Y673929D01*
X1026318Y673227D01*
X1025474Y672579D01*
X1024589Y671988D01*
X1023667Y671456D01*
X1022713Y670985D01*
X1021729Y670578D01*
X1020721Y670236D01*
X1019693Y669960D01*
X1018649Y669753D01*
X1017594Y669614D01*
X1016532Y669544D01*
X1015468Y669544D01*
X1014406Y669614D01*
X1013351Y669753D01*
X1012307Y669960D01*
X1011279Y670236D01*
X1010271Y670578D01*
X1009287Y670985D01*
X1008333Y671456D01*
X1007411Y671988D01*
X1006526Y672579D01*
X1005682Y673227D01*
X1004882Y673929D01*
X1004129Y674682D01*
X1003427Y675482D01*
X1002779Y676326D01*
X1002188Y677211D01*
X1001656Y678133D01*
X1001185Y679087D01*
X1000778Y680071D01*
X1000436Y681079D01*
X1000160Y682107D01*
X999953Y683151D01*
X999814Y684206D01*
X999744Y685268D01*
X999744Y686332D01*
X999814Y687394D01*
X999953Y688449D01*
X1000160Y689493D01*
X1000436Y690521D01*
X1000778Y691529D01*
X1001185Y692513D01*
X1001656Y693467D01*
X1002188Y694389D01*
X1002779Y695274D01*
X1003427Y696118D01*
X1004129Y696918D01*
X1004882Y697671D01*
X1005682Y698373D01*
X1006526Y699021D01*
X1007411Y699612D01*
X1008333Y700144D01*
X1009287Y700615D01*
X1010271Y701022D01*
X1011279Y701364D01*
X1012307Y701640D01*
X1013351Y701847D01*
X1014406Y701986D01*
X1015468Y702056D01*
X1016532Y702056D01*
X1017594Y701986D01*
X1018649Y701847D01*
X1019693Y701640D01*
X1020721Y701364D01*
X1021729Y701022D01*
X1022713Y700615D01*
X1023667Y700144D01*
X1024589Y699612D01*
X1025474Y699021D01*
X1026318Y698373D01*
X1027118Y697671D01*
X1027871Y696918D01*
X1028573Y696118D01*
X1029221Y695274D01*
X1029812Y694389D01*
X1030344Y693467D01*
X1030815Y692513D01*
X1031222Y691529D01*
X1031564Y690521D01*
X1031840Y689493D01*
X1032047Y688449D01*
X1032186Y687394D01*
X1032256Y686332D01*
X1032256Y685268D01*
M02*
